<?xml version="1.0" encoding="utf-8"?>
<!-- Generator: Adobe Illustrator 26.2.1, SVG Export Plug-In . SVG Version: 6.00 Build 0)  -->
<svg version="1.1" id="Слой_1" xmlns="http://www.w3.org/2000/svg" xmlns:xlink="http://www.w3.org/1999/xlink" x="0px" y="0px"
	 viewBox="0 0 164.41 53.86" style="enable-background:new 0 0 164.41 53.86;" xml:space="preserve">
<style type="text/css">
	.st0{fill:#FFFFFF;}
</style>
<g>
	<path class="st0" d="M1.52,34.01c0,0-0.77-1.47,0.87-2.06c0.19-0.07,7.79-1.58,10.36-2.11c2.58-0.52,3.89-0.18,5.48,0.23
		c1.59,0.41,6.9,1.8,6.9,1.8s1.77,0.66,1.63,2.55c-0.14,1.89-1.27,17.5-1.27,17.5s-0.07,1.68-1.8,1.43
		C21.96,53.11,10.3,48.6,10.3,48.6s-1.82-1.26-2.21-2.01C7.7,45.85,1.52,34.01,1.52,34.01"/>
	<path class="st0" d="M13.06,20.14c0,0-0.42-1.66,1.21-2.3c1.62-0.63,6.05-1.79,6.05-1.79s2.13-0.31,3.43,0.21
		c1.3,0.52,2.57,1.03,2.57,1.03s1.66,0.96,1.55,2.51c-0.1,1.55-0.65,9.78-0.65,9.78s-0.43,1.85-1.92,1.5
		c-1.49-0.35-7.65-1.78-7.65-1.78s-1.57-0.62-2.23-2.07C15.24,26.84,13.06,20.14,13.06,20.14"/>
	<path class="st0" d="M36.1,8.43c-0.8-0.95-6.13-7.28-6.13-7.28s-0.49-0.61-1.28-0.61h0c-0.8,0-1.28,0.61-1.28,0.61
		s-5.33,6.33-6.13,7.28c-0.8,0.95-0.59,2.85-0.59,2.85s0.2,0.88,0.73,2.12c0.61,1.43,2.28,2.26,2.28,2.26s2.54,0.97,2.77,1.01
		c1.54,0.22,1.75-1.25,1.75-1.25l0.48-5.65l0.48,5.65c0,0,0.21,1.48,1.75,1.25c0.23-0.03,2.77-1.01,2.77-1.01s1.67-0.82,2.28-2.26
		c0.52-1.24,0.73-2.12,0.73-2.12S36.9,9.39,36.1,8.43"/>
	<path class="st0" d="M55.87,34.01c0,0,0.77-1.47-0.87-2.06c-0.19-0.07-7.79-1.58-10.36-2.11c-2.58-0.52-3.89-0.18-5.48,0.23
		c-1.59,0.41-6.9,1.8-6.9,1.8s-1.77,0.66-1.63,2.55c0.14,1.89,1.27,17.5,1.27,17.5s0.07,1.68,1.8,1.43
		c1.73-0.25,13.39-4.76,13.39-4.76s1.82-1.26,2.21-2.01C49.69,45.85,55.87,34.01,55.87,34.01"/>
	<path class="st0" d="M44.33,20.14c0,0,0.42-1.66-1.21-2.3c-1.62-0.63-6.05-1.79-6.05-1.79s-2.13-0.31-3.43,0.21
		c-1.3,0.52-2.57,1.03-2.57,1.03s-1.66,0.96-1.55,2.51c0.1,1.55,0.65,9.78,0.65,9.78s0.43,1.85,1.92,1.5
		c1.49-0.35,7.65-1.78,7.65-1.78s1.57-0.62,2.23-2.07C42.14,26.84,44.33,20.14,44.33,20.14"/>
</g>
<g>
	<g>
		<path class="st0" d="M73.24,13.18c-1.85,0-3.4-0.59-4.67-1.77c-1.26-1.18-1.89-2.72-1.89-4.62c0-1.91,0.63-3.45,1.89-4.62
			C69.84,1,71.4,0.41,73.24,0.41c2.24,0,3.94,0.92,5.1,2.75l-2.18,1.18c-0.3-0.47-0.7-0.85-1.21-1.15c-0.51-0.3-1.08-0.45-1.71-0.45
			c-1.12,0-2.04,0.38-2.77,1.15c-0.73,0.76-1.09,1.73-1.09,2.9s0.36,2.14,1.09,2.9c0.73,0.76,1.65,1.15,2.77,1.15
			c0.52,0,1.02-0.09,1.5-0.28c0.48-0.19,0.86-0.41,1.13-0.67V8.41h-3.25V6.12h5.88v4.73C77.1,12.4,75.35,13.18,73.24,13.18z"/>
		<path class="st0" d="M90.74,12.94h-3.01l-2.42-4.38h-1.92v4.38h-2.62V0.62h5.76c1.27,0,2.28,0.37,3.02,1.11
			c0.75,0.74,1.12,1.69,1.12,2.86c0,1.01-0.26,1.83-0.79,2.46c-0.52,0.63-1.16,1.03-1.91,1.2L90.74,12.94z M86.14,6.25
			c0.54,0,0.99-0.15,1.33-0.45c0.34-0.3,0.52-0.71,0.52-1.21c0-0.51-0.17-0.91-0.52-1.21c-0.35-0.3-0.79-0.45-1.33-0.45h-2.75v3.33
			H86.14z"/>
		<path class="st0" d="M101.55,12.94h-8.72V0.62h8.72v2.31h-6.1v2.61h5.97v2.31h-5.97v2.79h6.1V12.94z"/>
		<path class="st0" d="M112.5,12.94h-8.72V0.62h8.72v2.31h-6.1v2.61h5.97v2.31h-5.97v2.79h6.1V12.94z"/>
		<path class="st0" d="M125.77,12.94h-2.53l-5.88-8.04v8.04h-2.62V0.62h2.7l5.71,7.74V0.62h2.62V12.94z"/>
		<path class="st0" d="M72.13,33.08h-4.86V20.76h4.86c1.93,0,3.51,0.57,4.72,1.7c1.21,1.13,1.82,2.62,1.82,4.47
			c0,1.85-0.6,3.33-1.81,4.46C75.66,32.52,74.08,33.08,72.13,33.08z M72.13,30.77c1.18,0,2.12-0.37,2.82-1.11
			c0.7-0.74,1.04-1.65,1.04-2.73c0-1.13-0.34-2.06-1.02-2.78c-0.68-0.72-1.63-1.08-2.85-1.08H69.9v7.7H72.13z"/>
		<path class="st0" d="M83.35,33.08h-2.62V20.76h2.62V33.08z"/>
		<path class="st0" d="M91.94,33.32c-1.85,0-3.4-0.59-4.67-1.77c-1.26-1.18-1.89-2.72-1.89-4.62c0-1.91,0.63-3.45,1.89-4.62
			c1.26-1.17,2.82-1.75,4.67-1.75c2.24,0,3.94,0.92,5.1,2.75l-2.18,1.18c-0.3-0.47-0.7-0.85-1.21-1.15
			c-0.51-0.3-1.08-0.45-1.71-0.45c-1.12,0-2.04,0.38-2.77,1.15c-0.73,0.76-1.09,1.73-1.09,2.9s0.36,2.14,1.09,2.9
			c0.73,0.76,1.65,1.15,2.77,1.15c0.52,0,1.02-0.09,1.5-0.28c0.48-0.19,0.86-0.41,1.13-0.67v-1.48h-3.25v-2.29h5.88v4.73
			C95.8,32.55,94.05,33.32,91.94,33.32z"/>
		<path class="st0" d="M102.08,33.08h-2.62V20.76h2.62V33.08z"/>
		<path class="st0" d="M110.19,33.08h-2.64V23.07h-3.6v-2.31h9.83v2.31h-3.58V33.08z"/>
		<path class="st0" d="M127.14,33.08h-2.99l-0.76-2.09h-5.28l-0.78,2.09h-2.99l4.77-12.32h3.29L127.14,33.08z M122.67,28.68
			l-1.92-5.3l-1.92,5.3H122.67z"/>
		<path class="st0" d="M136.3,33.08h-7.83V20.76h2.62v10.01h5.21V33.08z"/>
		<path class="st0" d="M69.9,53.23h-2.62V40.9h5.76c1.29,0,2.31,0.38,3.04,1.14s1.1,1.7,1.1,2.84c0,1.12-0.37,2.06-1.11,2.83
			c-0.74,0.76-1.75,1.15-3.03,1.15H69.9V53.23z M72.69,46.54c0.53,0,0.96-0.15,1.3-0.45c0.34-0.3,0.51-0.71,0.51-1.21
			c0-0.51-0.17-0.91-0.51-1.21c-0.34-0.3-0.77-0.45-1.3-0.45H69.9v3.33H72.69z"/>
		<path class="st0" d="M86.82,53.23h-7.83V40.9h2.62v10.01h5.21V53.23z"/>
		<path class="st0" d="M100.33,53.23h-2.99l-0.76-2.09h-5.28l-0.78,2.09h-2.99l4.77-12.32h3.29L100.33,53.23z M95.86,48.83
			l-1.92-5.3l-1.92,5.3H95.86z"/>
		<path class="st0" d="M107.15,53.23h-2.64V43.21h-3.6V40.9h9.83v2.31h-3.58V53.23z"/>
		<path class="st0" d="M115.22,53.23h-2.62V40.9h8.72v2.31h-6.1v2.61h5.97v2.31h-5.97V53.23z"/>
		<path class="st0" d="M129.17,53.45c-1.86,0-3.4-0.6-4.61-1.8c-1.21-1.2-1.82-2.73-1.82-4.57c0-1.85,0.61-3.37,1.82-4.57
			c1.21-1.2,2.75-1.8,4.61-1.8c1.87,0,3.41,0.6,4.63,1.79c1.21,1.19,1.82,2.72,1.82,4.58c0,1.86-0.61,3.39-1.82,4.58
			C132.59,52.85,131.04,53.45,129.17,53.45z M126.46,49.97c0.68,0.76,1.59,1.15,2.71,1.15c1.12,0,2.03-0.38,2.72-1.15
			c0.69-0.76,1.03-1.73,1.03-2.9s-0.35-2.14-1.03-2.9c-0.69-0.76-1.6-1.15-2.72-1.15c-1.12,0-2.02,0.38-2.71,1.15
			c-0.68,0.76-1.03,1.73-1.03,2.9S125.78,49.21,126.46,49.97z"/>
		<path class="st0" d="M147.63,53.23h-3.01l-2.42-4.38h-1.92v4.38h-2.62V40.9h5.76c1.27,0,2.28,0.37,3.02,1.11
			c0.75,0.74,1.12,1.69,1.12,2.86c0,1.01-0.26,1.83-0.79,2.46c-0.52,0.63-1.16,1.03-1.91,1.2L147.63,53.23z M143.03,46.54
			c0.54,0,0.99-0.15,1.33-0.45c0.34-0.3,0.52-0.71,0.52-1.21c0-0.51-0.17-0.91-0.52-1.21c-0.35-0.3-0.79-0.45-1.33-0.45h-2.75v3.33
			H143.03z"/>
		<path class="st0" d="M163.07,53.23h-2.64V44.6l-3.47,8.63h-1.15l-3.47-8.63v8.63h-2.62V40.9h3.68l2.99,7.45l2.99-7.45h3.69V53.23z
			"/>
	</g>
</g>
</svg>
